<svg id="Capa_1" enable-background="new 0 0 512 512" height="512" viewBox="0 0 512 512" width="512" xmlns="http://www.w3.org/2000/svg"><g><g><path d="m149.845 420.659-97.622-102.458c-56.271-61.81-56.271-162.023 0-223.832 56.271-61.81 147.505-61.81 203.777 0 56.271-61.81 147.505-61.81 203.777 0 56.271 61.81 56.271 162.023 0 223.832l-97.622 102.458z" fill="#e38eba"/><path d="m384.474 388.244c-98.184 56.811-128.474-23.031-128.474-23.031-45.32 78.967-126.362 20.926-126.362 20.926 5.636 27.937 58.896 80.525 126.362 80.522 0 0 82.828 3.758 128.474-78.417z" fill="#ffbe90"/><path d="m363.85 155.381c-8.325-13.89-29.137-13.89-37.462 0l-18.523 28.29h-102.089l-18.523-28.29c-8.325-13.89-29.137-13.89-37.462 0 0 0-52.685 85.767-28.678 207.698 0 0 11.638 48.031 65.707 48.485 63.272.53 70.102-44.809 70.102-44.809s15.907 44.809 70.232 44.809c25.667 0 62.558-19.613 66.158-51.461 17.309-153.139-29.462-204.722-29.462-204.722z" fill="#ffd4b5"/><path d="m241.705 343.791-12.77-22.118c-6.353-11.004 1.588-24.759 14.295-24.759h25.54c12.706 0 20.648 13.755 14.295 24.759l-12.77 22.118c-6.354 11.004-22.236 11.004-28.59 0z" fill="#a0c8ff"/></g><g><path d="m155.946 266.641c0 5.534 4.486 10.02 10.02 10.02s10.02-4.486 10.02-10.02c0-8.603 6.999-15.601 15.601-15.601s15.602 6.999 15.602 15.601c0 5.534 4.486 10.02 10.02 10.02s10.02-4.486 10.02-10.02c0-19.652-15.988-35.64-35.641-35.64-19.654-.001-35.642 15.988-35.642 35.64z"/><path d="m320.413 231c-19.653 0-35.641 15.988-35.641 35.64 0 5.534 4.486 10.02 10.02 10.02s10.02-4.486 10.02-10.02c0-8.603 6.999-15.601 15.602-15.601s15.601 6.999 15.601 15.601c0 5.534 4.486 10.02 10.02 10.02s10.02-4.486 10.02-10.02c-.001-19.651-15.989-35.64-35.642-35.64z"/><path d="m467.186 87.623c-29.137-32.005-67.954-49.632-109.297-49.632-37.932 0-73.734 14.835-101.888 42.002-28.154-27.167-63.956-42.002-101.888-42.002-41.344 0-80.16 17.626-109.297 49.632-28.901 31.743-44.816 73.885-44.816 118.662s15.915 86.918 44.814 118.661c3.726 4.091 10.063 4.39 14.154.664 4.092-3.725 4.389-10.062.664-14.154-52.796-57.991-52.796-152.35 0-210.342 25.293-27.782 58.846-43.083 94.479-43.083s69.186 15.3 94.479 43.083c1.899 2.086 4.589 3.274 7.409 3.274s5.51-1.189 7.409-3.274c25.293-27.782 58.846-43.083 94.479-43.083s69.186 15.3 94.479 43.083c52.77 57.963 52.794 152.259.076 210.258l-47.75 50.115c.519-3.595.893-7.2 1.037-10.832.635-16.068 1.605-45.294.953-60.513-.236-5.528-4.888-9.816-10.439-9.581-5.529.237-9.819 4.91-9.582 10.439.644 15.043-.454 46.176-.955 58.863-.143 3.621-.535 7.165-1.158 10.608-1.968 9.817-8.169 18.927-17.714 25.883-11.089 8.082-25.652 12.532-41.005 12.532-8.118 0-15.993-1.223-23.421-3.64-9.636-3.118-18.094-8.158-24.463-14.577-1.664-1.675-3.188-3.453-4.524-5.275-3.574-4.885-5.859-10.079-6.843-15.502 5.119-2.209 9.465-6.022 12.392-11.092l12.77-22.118c4.795-8.305 4.795-18.221 0-26.526-4.794-8.304-13.382-13.262-22.971-13.262h-25.54c-9.589 0-18.177 4.958-22.971 13.262-4.795 8.305-4.795 18.221 0 26.526l12.77 22.118c2.924 5.064 7.263 8.875 12.375 11.085-1.369 7.503-5.224 14.599-11.37 20.793-11.477 11.57-28.928 18.206-47.878 18.206-30.489 0-56.596-17.916-59.533-40.815-5.445-70.5 2.948-122.432 10.958-153.598 8.68-33.776 18.784-51.101 18.872-51.25 1.25-2.093 2.276-4.105 4.222-5.668 1.634-1.313 3.632-2.142 5.737-2.225 4.683-.185 8.348 3.213 10.311 7.188l18.716 37.913c1.688 3.419 5.171 5.584 8.984 5.584h103.158c3.814 0 7.296-2.165 8.984-5.584l18.716-37.913c1.962-3.976 5.628-7.373 10.311-7.188 4.998.197 7.645 3.984 9.95 7.879.099.167 9.995 17.098 18.61 50.142 1.396 5.355 6.87 8.561 12.223 7.168 5.355-1.396 8.564-6.869 7.168-12.224-8.802-33.763-18.912-52.098-20.574-54.981-5.713-11.298-16.059-18.03-27.745-18.03-11.8 0-22.235 6.865-27.911 18.364l-15.959 32.329h-90.703l-15.959-32.329c-5.677-11.499-16.111-18.364-27.911-18.364-11.682 0-22.024 6.727-27.739 18.018-3.657 6.308-43.142 78.092-32.371 216.662 6.42 78.663 91.19 114.046 149.332 114.046 28.684 0 59.67-8.826 85.013-24.217 12.75-7.743 23.876-16.909 33.207-27.27l92.812-97.409c.052-.055.104-.11.155-.166 28.896-31.743 44.811-73.884 44.811-118.661s-15.915-86.919-44.814-118.662zm-229.573 222.554c.563-.975 2.237-3.243 5.617-3.243h25.54c3.38 0 5.054 2.268 5.617 3.243s1.69 3.559 0 6.486l-12.77 22.118c-1.69 2.927-4.492 3.243-5.617 3.243s-3.927-.316-5.617-3.243l-12.77-22.118c-1.69-2.927-.563-5.511 0-6.486zm18.387 143.792c-28.135 0-59.108-9.017-82.852-24.121-6.932-4.409-14.412-10.089-21.317-17.2 10.415 4.024 22.053 6.275 34.325 6.275 24.255 0 46.891-8.796 62.104-24.132 2.854-2.876 5.451-6.008 7.725-9.362 2.277 3.354 4.886 6.483 7.743 9.358 8.606 8.675 19.85 15.426 32.499 19.519 9.418 3.065 19.379 4.618 29.606 4.618 9.833 0 19.252-1.463 27.96-4.127-26.575 25.845-64.487 39.172-97.793 39.172z"/><ellipse cx="392.684" cy="245.494" rx="9.999" ry="9.999" transform="matrix(.507 -.862 .862 .507 -17.947 459.62)"/><circle cx="309.017" cy="358.976" r="10"/><circle cx="345.805" cy="369.039" r="10"/><circle cx="202.983" cy="358.976" r="10"/><circle cx="166.195" cy="369.039" r="10"/></g></g></svg>