<svg id="Capa_1" enable-background="new 0 0 512 512" height="512" viewBox="0 0 512 512" width="512" xmlns="http://www.w3.org/2000/svg"><g><g><g><path d="m327.263 72.689c-17.199-17.2-45.085-17.199-62.284 0l-8.983 8.983-8.983-8.983c-17.199-17.2-45.085-17.2-62.284 0-17.199 17.199-17.199 45.085 0 62.284l62.758 62.759c4.699 4.699 12.318 4.699 17.017 0l62.758-62.759c17.2-17.199 17.2-45.084.001-62.284z" fill="#fb4a59"/><path d="m327.259 134.971-62.752 62.764c-4.705 4.693-12.322 4.693-17.015 0l-13.525-13.525c3.839 1.167 8.195.241 11.239-2.804l58.697-58.709c16.088-16.088 16.088-42.164 0-58.252-1.721-1.721-3.562-3.249-5.487-4.597 10.493.542 20.829 4.825 28.843 12.839 17.207 17.196 17.207 45.089 0 62.284z" fill="#f82f40"/></g><g><g><g><path d="m57.749 255.725h-40.347c-5.469 0-9.902 4.433-9.902 9.902v49.956c0 5.469 4.433 9.902 9.902 9.902h40.347z" fill="#7da2b0"/></g><g><path d="m454.251 255.725h40.347c5.469 0 9.902 4.433 9.902 9.902v49.956c0 5.469-4.433 9.902-9.902 9.902h-40.347z" fill="#7da2b0"/></g></g><g><g><g><path d="m346.13 252.634h-6.616c-8.78 0-15.897 7.118-15.897 15.897v-12.943c0-8.78-7.118-15.898-15.898-15.898h-6.616c-8.78 0-15.898 7.118-15.898 15.898v-7.481c0-8.78-7.118-15.898-15.898-15.898h-6.616c-8.78 0-15.898 7.118-15.898 15.898v-5.611c0-8.78-7.118-15.898-15.898-15.898h-6.616c-8.78 0-15.897 7.118-15.897 15.897v27.746l-34.8 5.961c-5.725 1.607-9.682 6.827-9.682 12.774v15.938c0 6.644 1.97 13.139 5.66 18.664l25.883 38.746c8.436 12.628 12.938 27.474 12.938 42.661v47.22h115.901v-18.061c0-19.518 7.262-38.337 20.374-52.796 5.194-5.728 8.961-12.602 10.993-20.062l4.651-17.071c1.145-4.203 1.725-8.54 1.725-12.897v-62.789c.002-8.777-7.115-15.895-15.895-15.895z" fill="#ffcec0"/><path d="m362.03 268.535v62.785c0 4.358-.586 8.698-1.728 12.893l-4.646 17.079c-1.018 3.734-2.467 7.315-4.32 10.675-1.843 3.37-4.08 6.519-6.682 9.379-13.104 14.458-20.372 33.284-20.372 52.801v18.063h-28.82v-18.063c0-19.517 7.258-38.343 20.372-52.801 2.602-2.861 4.838-6.01 6.682-9.379 1.853-3.36 3.293-6.941 4.31-10.675l4.656-17.079c1.142-4.195 1.718-8.535 1.718-12.893v-62.785c0-4.464-1.834-8.486-4.79-11.376 2.861-2.803 6.778-4.522 11.107-4.522h6.614c8.776.001 15.899 7.114 15.899 15.898z" fill="#fdb0a0"/><g><path d="m126.692 269.499h81.69v42.212h-81.69z" fill="#7da2b0"/><path d="m181.952 269.499h26.43v42.212h-26.43z" fill="#688d97"/></g></g></g><g><g><path d="m130.931 395.967h-27.114c-10.515 0-19.039-8.524-19.039-19.039v-166.52c0-10.515 8.524-19.039 19.039-19.039h27.114c10.515 0 19.039 8.524 19.039 19.039v166.52c0 10.515-8.524 19.039-19.039 19.039z" fill="#a3e440"/></g><g><path d="m149.97 210.41v166.52c0 10.51-8.52 19.04-19.04 19.04h-27.11c-.32 0-.63-.01-.94-.02 10.06-.52 18.06-8.84 18.06-19.02v-166.52c0-10.19-8-18.51-18.06-19.02.31-.01.62-.02.94-.02h27.11c10.52 0 19.04 8.52 19.04 19.04z" fill="#99d53b"/></g><g><path d="m408.183 395.967h-27.114c-10.515 0-19.039-8.524-19.039-19.039v-166.52c0-10.515 8.524-19.039 19.039-19.039h27.114c10.515 0 19.039 8.524 19.039 19.039v166.52c0 10.515-8.524 19.039-19.039 19.039z" fill="#a3e440"/></g><g><path d="m427.22 210.41v166.52c0 10.51-8.52 19.04-19.04 19.04h-27.11c-.32 0-.63-.01-.94-.02 10.06-.52 18.06-8.84 18.06-19.02v-166.52c0-10.19-8-18.51-18.06-19.02.31-.01.62-.02.94-.02h27.11c10.52 0 19.04 8.52 19.04 19.04z" fill="#99d53b"/></g></g><g><g><path d="m458.042 364.346h-11.781c-10.515 0-19.039-8.524-19.039-19.039v-109.403c0-10.515 8.524-19.039 19.039-19.039h11.781c10.515 0 19.039 8.524 19.039 19.039v109.403c0 10.515-8.524 19.039-19.039 19.039z" fill="#82b732"/></g><g><path d="m477.08 235.9v109.41c0 10.51-8.52 19.04-19.04 19.04h-11.78c-2.79 0-5.44-.6-7.82-1.68 6.62-2.98 11.22-9.64 11.22-17.36v-109.41c0-7.72-4.6-14.38-11.22-17.36 2.38-1.08 5.03-1.68 7.82-1.68h11.78c10.52 0 19.04 8.53 19.04 19.04z" fill="#79a72d"/></g></g><g><g><path d="m65.739 364.346h-11.781c-10.515 0-19.039-8.524-19.039-19.039v-109.403c0-10.515 8.524-19.039 19.039-19.039h11.781c10.515 0 19.039 8.524 19.039 19.039v109.403c0 10.515-8.524 19.039-19.039 19.039z" fill="#82b732"/></g><g><path d="m84.78 235.9v109.41c0 10.51-8.53 19.04-19.04 19.04h-11.78c-2.79 0-5.44-.6-7.82-1.68 6.61-2.98 11.22-9.64 11.22-17.36v-109.41c0-7.72-4.61-14.38-11.22-17.36 2.38-1.08 5.03-1.68 7.82-1.68h11.78c10.51 0 19.04 8.53 19.04 19.04z" fill="#79a72d"/></g></g></g></g></g><g><path d="m242.184 203.036c3.689 3.689 8.594 5.721 13.812 5.721s10.123-2.032 13.812-5.721l20.906-20.906c2.929-2.929 2.929-7.678 0-10.606-2.929-2.929-7.678-2.929-10.606 0l-20.908 20.905c-.856.856-1.994 1.328-3.205 1.328s-2.349-.472-3.206-1.328l-62.758-62.759c-6.902-6.902-10.703-16.078-10.703-25.839s3.801-18.937 10.703-25.839c14.248-14.247 37.43-14.247 51.678 0l8.983 8.983c2.929 2.929 7.678 2.929 10.606 0l8.983-8.983c6.902-6.902 16.078-10.703 25.838-10.703 9.761 0 18.938 3.801 25.839 10.703s10.703 16.078 10.703 25.839-3.801 18.937-10.703 25.839l-18.289 18.289c-2.929 2.929-2.929 7.678 0 10.606 2.928 2.929 7.677 2.929 10.606 0l18.289-18.289c9.735-9.735 15.096-22.678 15.096-36.445 0-13.768-5.361-26.71-15.097-36.445-9.735-9.735-22.678-15.096-36.445-15.096s-26.71 5.361-36.445 15.096l-3.68 3.68-3.68-3.68c-20.096-20.097-52.795-20.097-72.891 0-9.735 9.735-15.096 22.678-15.096 36.445s5.361 26.71 15.096 36.445z"/><path d="m494.598 248.225h-10.017v-12.321c0-14.634-11.905-26.539-26.539-26.539h-11.781c-4.133 0-8.048.951-11.539 2.643v-1.599c0-14.634-11.905-26.539-26.539-26.539h-27.114c-14.634 0-26.539 11.905-26.539 26.539v36.291c-2.609-1.007-5.44-1.566-8.4-1.566h-6.617c-3.537 0-6.893.789-9.901 2.2-3.344-8.841-11.896-15.143-21.894-15.143h-6.616c-4.41 0-8.538 1.226-12.062 3.355-4.159-6.511-11.451-10.836-19.733-10.836h-6.616c-4.789 0-9.245 1.446-12.957 3.924-4.265-5.779-11.121-9.535-18.838-9.535h-6.616c-12.902 0-23.398 10.496-23.398 23.397v19.502h-43.412v-51.59c0-14.634-11.905-26.539-26.539-26.539h-27.114c-14.633 0-26.539 11.905-26.539 26.539v1.599c-3.491-1.693-7.406-2.643-11.539-2.643h-11.781c-14.634 0-26.539 11.905-26.539 26.539v12.321h-10.017c-9.595.001-17.402 7.807-17.402 17.403v49.957c0 9.596 7.807 17.402 17.402 17.402h10.017v12.321c0 14.634 11.905 26.539 26.539 26.539h11.781c4.133 0 8.048-.951 11.539-2.643v7.726c0 14.634 11.905 26.539 26.539 26.539h27.114c14.634 0 26.539-11.905 26.539-26.539v-57.717h1.506c1.105 2.991 2.554 5.847 4.345 8.538l25.884 38.746c7.636 11.428 11.673 24.738 11.673 38.489v47.226c0 4.142 3.358 7.5 7.5 7.5s7.5-3.358 7.5-7.5v-47.226c0-16.729-4.911-32.92-14.201-46.822l-25.876-38.735c-.047-.071-.09-.144-.136-.215h25.217v2.39c0 4.142 3.358 7.5 7.5 7.5s7.5-3.358 7.5-7.5v-79.104c0-4.63 3.767-8.397 8.398-8.397h6.616c4.63 0 8.397 3.767 8.397 8.397v5.611c0 4.142 3.358 7.5 7.5 7.5s7.5-3.358 7.5-7.5c0-4.63 3.767-8.397 8.397-8.397h6.616c4.631 0 8.398 3.767 8.398 8.397v7.481c0 4.142 3.358 7.5 7.5 7.5s7.5-3.358 7.5-7.5c0-4.631 3.767-8.398 8.397-8.398h6.616c4.63 0 8.397 3.767 8.397 8.398v12.943c0 4.142 3.358 7.5 7.5 7.5s7.5-3.358 7.5-7.5c0-4.63 3.767-8.397 8.397-8.397h6.617c4.63 0 8.397 3.767 8.397 8.397v62.789c0 3.688-.492 7.365-1.462 10.925l-4.651 17.071c-1.713 6.289-4.934 12.166-9.313 16.996-14.392 15.87-22.318 36.409-22.318 57.833v18.061c0 4.142 3.358 7.5 7.5 7.5s7.5-3.358 7.5-7.5v-18.061c0-17.691 6.545-34.652 18.43-47.757 1.66-1.831 3.184-3.782 4.589-5.816 1.56 11.448 10.339 20.661 22.053 22.537.402.064.801.095 1.195.095 3.619 0 6.806-2.626 7.396-6.315.655-4.09-2.129-7.937-6.22-8.592-5.619-.9-9.698-5.682-9.698-11.37v-166.52c0-6.363 5.176-11.539 11.539-11.539h27.114c6.362 0 11.539 5.176 11.539 11.539v166.52c0 5.642-4.039 10.418-9.604 11.357-4.084.689-6.837 4.559-6.148 8.643.688 4.084 4.558 6.834 8.643 6.148 12.811-2.161 22.109-13.158 22.109-26.148v-7.726c3.491 1.693 7.406 2.643 11.539 2.643h11.781c14.634 0 26.539-11.905 26.539-26.539v-12.321h10.017c9.596 0 17.402-7.807 17.402-17.402v-49.957c.004-9.597-7.803-17.403-17.398-17.403zm-477.196 69.761c-1.325 0-2.402-1.078-2.402-2.402v-49.957c0-1.325 1.078-2.402 2.402-2.402h10.017v54.761zm125.068 58.942c0 6.363-5.176 11.539-11.539 11.539h-27.114c-6.362 0-11.539-5.176-11.539-11.539v-87.563c0-4.142-3.358-7.5-7.5-7.5s-7.5 3.358-7.5 7.5v55.941c0 6.363-5.176 11.539-11.539 11.539h-11.781c-6.363 0-11.539-5.176-11.539-11.539v-109.402c0-6.363 5.176-11.539 11.539-11.539h11.781c6.363 0 11.539 5.176 11.539 11.539v20.137c0 4.142 3.358 7.5 7.5 7.5s7.5-3.358 7.5-7.5v-45.632c0-6.363 5.176-11.539 11.539-11.539h27.114c6.363 0 11.539 5.176 11.539 11.539zm15-72.717v-27.212h43.412v27.212zm312.111 41.096c0 6.363-5.176 11.539-11.539 11.539h-11.781c-6.363 0-11.539-5.176-11.539-11.539v-109.403c0-6.363 5.176-11.539 11.539-11.539h11.781c6.363 0 11.539 5.176 11.539 11.539zm27.419-29.724c0 1.325-1.078 2.402-2.402 2.402h-10.017v-54.761h10.017c1.325 0 2.402 1.078 2.402 2.402z"/></g></g></svg>