<svg id="Capa_1" enable-background="new 0 0 512.118 512.118" height="512" viewBox="0 0 512.118 512.118" width="512" xmlns="http://www.w3.org/2000/svg"><g><path d="m69.805 442.371c0 17.062 13.881 30.943 30.942 30.943h341.685c-17.089-17.089-17.089-44.796 0-61.885h-341.685c-17.061-.001-30.942 13.88-30.942 30.942z" fill="#f2f3ed"/><path d="m119.805 442.371c0-17.062 13.881-30.942 30.942-30.942h-50c-17.062 0-30.942 13.881-30.942 30.942 0 17.062 13.881 30.943 30.942 30.943h50c-17.061 0-30.942-13.881-30.942-30.943z" fill="#ddd"/><path d="m411.251 318.123c0-17.062-13.881-30.943-30.943-30.943h-279.56c17.121 17.055 17.189 44.745.177 61.886h279.384c17.061-.001 30.942-13.882 30.942-30.943z" fill="#f2f3ed"/><path d="m150.748 287.179h-50c17.121 17.055 17.189 44.745.177 61.886h50c17.012-17.14 16.944-44.831-.177-61.886z" fill="#ddd"/><g><path d="m457.963 504.615h-357.216c-34.32 0-62.243-27.923-62.243-62.243 0-34.321 27.923-62.244 62.243-62.244h357.216c8.644 0 15.65 7.007 15.65 15.65s-7.007 15.65-15.65 15.65h-357.216c-17.062 0-30.942 13.881-30.942 30.942 0 17.062 13.881 30.943 30.942 30.943h357.216c8.644 0 15.65 7.007 15.65 15.65s-7.006 15.652-15.65 15.652z" fill="#e5925a"/></g><g><path d="m380.308 380.366h-295.092c-8.644 0-15.65-7.007-15.65-15.65s7.007-15.65 15.65-15.65h295.092c17.062 0 30.943-13.881 30.943-30.942 0-17.062-13.881-30.943-30.943-30.943h-295.092c-8.644 0-15.65-7.007-15.65-15.65s7.007-15.65 15.65-15.65h295.092c34.321 0 62.244 27.923 62.244 62.243 0 34.319-27.923 62.242-62.244 62.242z" fill="#64b9fc"/></g><path d="m256.059 72.034c-85.863-19.081-112.319 23.611-108.569 97.713 7.113 66.265 64.393 103.141 108.569 77.589 44.177 25.551 101.456-11.325 108.569-77.589 3.75-74.102-22.706-116.794-108.569-97.713z" fill="#ff6372"/><path d="m197.49 169.747c-2.679-52.939 10.059-89.847 48.861-99.653-78.158-13.787-102.465 28.421-98.861 99.653 6.829 63.616 59.895 100.146 103.214 80.355-26.676-11.493-48.952-40.648-53.214-80.355z" fill="#e35269"/><path d="m349.246 442.431-31.063-31.003-31.062 31.003v-124.22h62.125z" fill="#ff6372"/><path d="m317.121 318.211h-30v124.22l30-29.942z" fill="#e35269"/><path d="m330.329 32.595v1.454c0 23.493-18.867 42.58-42.28 42.929-.22.011-.445.011-.665.011h-26.332c-2.672 0-4.84-2.168-4.84-4.84v-1.454c0-23.718 19.227-42.945 42.94-42.945h26.332c.182 0 .36.011.537.032 2.42.263 4.308 2.318 4.308 4.813z" fill="#68ca44"/><path d="m286.212 72.149v-1.454c0-22.791 17.752-41.434 40.179-42.858-.122-.023-.246-.042-.371-.055-.177-.021-.354-.032-.537-.032h-26.332c-23.713 0-42.94 19.227-42.94 42.945v1.454c0 2.672 2.168 4.84 4.84 4.84h26.332c.22 0 .445 0 .666-.011.693-.01 1.381-.038 2.066-.08-2.224-.436-3.903-2.397-3.903-4.749z" fill="#4fc123"/><path d="m457.959 465.818h-12.246c-11.345-13.339-11.346-33.55-.002-46.891h12.248c12.765 0 23.149-10.385 23.149-23.149 0-12.766-10.385-23.15-23.149-23.15h-34.186c16.005-12.792 26.275-32.474 26.275-54.51 0-38.455-31.285-69.74-69.74-69.74h-50.668c21.527-15.299 36.684-40.871 41.525-71 .657-4.09-2.126-7.938-6.216-8.595-4.086-.655-7.938 2.127-8.595 6.216-6.817 42.427-49.713 92.924-96.54 65.847-2.324-1.344-5.187-1.344-7.51 0-49.292 28.511-92.534-27.718-97.336-71.689-2.016-40.433 5.229-67.037 22.145-81.324 15.067-12.725 39.101-15.976 71.496-9.686.069 1.482.104 25.097.104 25.097h-10.187l-7.837-8.259c-2.852-3.004-7.598-3.129-10.604-.277-3.004 2.852-3.128 7.599-.277 10.604l10.056 10.596c1.416 1.492 3.383 2.337 5.44 2.337h41.498c1.711 0 3.37-.585 4.702-1.657l10.374-8.35c3.228-2.598 3.737-7.318 1.141-10.545s-7.317-3.737-10.545-1.141l-8.315 6.692h-10.446v-18.754c16.085 1.06 35.515 1.296 49.641-7.266 27.285 6.628 41.177 27.934 43.721 66.76.318 4.848 4.345 7.23 7.97 6.999 4.134-.269 7.267-3.836 6.999-7.97-2.634-40.625-17.911-66.568-45.469-77.33 7.031-8.679 11.256-19.703 11.256-31.633-.252-6.27-3.796-12.942-10.908-13.714-.475-.057-27.77-.086-27.77-.086-17.802 0-33.48 9.272-42.459 23.241-5.678-15.421-14.656-29.615-26.406-41.307-2.937-2.922-7.686-2.909-10.606.026-2.922 2.936-2.91 7.685.026 10.606 13.636 13.569 22.97 31.019 26.905 49.709-35.061-6.037-61.034-1.476-79.177 13.846-20.767 17.54-29.741 48.207-27.436 93.755 1.434 29.506 18.443 61.224 42.473 78.251h-97.254c-12.766 0-23.15 10.385-23.15 23.15s10.385 23.149 23.15 23.149h12.258c11.37 13.311 11.435 33.509.15 46.891h-12.408c-12.766 0-23.15 10.385-23.15 23.149 0 6.143 2.405 11.734 6.322 15.882-22.205 11.68-37.381 34.985-37.381 61.768 0 38.46 31.285 69.75 69.74 69.75h357.21c12.765 0 23.149-10.385 23.149-23.15 0-12.763-10.385-23.148-23.15-23.148zm-158.807-430.568h23.657c-.635 18.705-16.034 33.949-34.872 34.23-.06.001-.189.006-.249.008-.102.004-.204.002-.304.002h-23.651c.637-18.989 16.28-34.24 35.419-34.24zm158.807 352.378c4.493 0 8.149 3.656 8.149 8.15 0 4.493-3.656 8.149-8.149 8.149h-101.214v-16.06zm-342.511-92.95h48.411c4.143 0 7.5-3.357 7.5-7.5s-3.357-7.5-7.5-7.5h-78.64c-4.494 0-8.15-3.656-8.15-8.149 0-4.494 3.656-8.15 8.15-8.15h295.09c30.184 0 54.74 24.557 54.74 54.74 0 28.454-21.814 51.907-49.593 54.51h-28.711v-16.06h23.563c21.196 0 38.44-17.249 38.44-38.45 0-21.196-17.244-38.44-38.44-38.44h-183.77c-4.143 0-7.5 3.357-7.5 7.5s3.357 7.5 7.5 7.5h183.77c12.925 0 23.44 10.516 23.44 23.44 0 12.931-10.516 23.45-23.44 23.45h-23.563v-23.356c0-4.143-3.357-7.589-7.5-7.589l-124.238-.001h-.011c-4.137 0-7.494 3.351-7.5 7.489-.006 4.142 3.347 7.505 7.489 7.511l54.636.079v15.867h-164.083c7.494-15.644 7.464-31.274-.09-46.891zm179.173 31.034h47.124v98.638l-18.265-18.229c-3.532-2.922-7.064-2.922-10.596 0l-18.264 18.229v-98.638zm-209.402 47.156c-4.494 0-8.15-3.656-8.15-8.15 0-4.493 3.656-8.149 8.15-8.149h194.402v16.06zm372.74 124.25h-357.21c-30.184 0-54.74-24.561-54.74-54.75 0-28.448 21.814-51.897 49.593-54.5h184.02v16.06h-178.873c-21.196 0-38.44 17.244-38.44 38.44 0 21.201 17.244 38.45 38.44 38.45h201.09c4.143 0 7.5-3.357 7.5-7.5s-3.357-7.5-7.5-7.5h-201.09c-12.925 0-23.44-10.52-23.44-23.45 0-12.925 10.516-23.44 23.44-23.44h178.872v23.504c0 7.566 6.169 9.237 12.798 5.309l25.764-25.715 25.765 25.715c4.292 4.283 12.798 1.882 12.798-5.309v-23.504h71.017c-7.53 15.63-7.529 31.261.002 46.891h-93.236c-4.143 0-7.5 3.357-7.5 7.5s3.357 7.5 7.5 7.5h123.431c4.493 0 8.149 3.656 8.149 8.149 0 4.494-3.656 8.15-8.15 8.15z"/></g></svg>