<?xml version="1.0"?>
<svg xmlns="http://www.w3.org/2000/svg" xmlns:xlink="http://www.w3.org/1999/xlink" xmlns:svgjs="http://svgjs.com/svgjs" version="1.1" width="512" height="512" x="0" y="0" viewBox="0 0 512 512" style="enable-background:new 0 0 512 512" xml:space="preserve" class=""><g><g xmlns="http://www.w3.org/2000/svg"><path d="m444.5 436h-377c-33.137 0-60-26.863-60-60v-240c0-33.137 26.863-60 60-60h377c33.137 0 60 26.863 60 60v240c0 33.137-26.863 60-60 60z" fill="#ffffff" data-original="#bdf2ff" style="" class=""/><path d="m444.5 106h-30v300h30c16.542 0 30-13.458 30-30v-240c0-16.542-13.458-30-30-30z" fill="#e33a38" data-original="#e33a38" style="" class=""/><path d="m444.5 376v-240c0-16.542-13.458-30-30-30h-347c-16.542 0-30 13.458-30 30v240c0 16.542 13.458 30 30 30h347c16.542 0 30-13.458 30-30z" fill="#ff443b" data-original="#ff443b" style="" class=""/><path d="m343.822 243.011c0-.016-130-74.952-130-74.952-2.203-1.256-4.753-1.995-7.48-1.995v180c3.324 0 6.386-1.095 8.872-2.925l128.608-74.134c4.49-2.608 7.52-7.448 7.52-13.005s-3.03-10.397-7.52-12.989z" fill="#ffffff" data-original="#bdf2ff" style="" class=""/><path d="m315.378 269.005c3.561-2.608 5.964-7.448 5.964-13.005s-2.403-10.397-5.964-12.989c0-.016-103.104-74.952-103.104-74.952-1.748-1.256-3.77-1.995-5.932-1.995-8.284 0-15 6.716-15 15v150c0 8.284 6.716 15 15 15 2.636 0 5.064-1.095 7.037-2.925z" fill="#ffffff" data-original="#ffffff" style="" class=""/><path d="m444.5 68.5h-377c-37.22 0-67.5 30.28-67.5 67.5v240c0 37.22 30.28 67.5 67.5 67.5h377c37.22 0 67.5-30.28 67.5-67.5v-240c0-37.22-30.28-67.5-67.5-67.5zm52.5 307.5c0 28.948-23.552 52.5-52.5 52.5h-377c-28.948 0-52.5-23.552-52.5-52.5v-240c0-28.948 23.552-52.5 52.5-52.5h377c28.948 0 52.5 23.552 52.5 52.5z" fill="#000000" data-original="#000000" style="" class=""/><path d="m444.5 98.5h-377c-20.678 0-37.5 16.822-37.5 37.5v105c0 4.143 3.357 7.5 7.5 7.5s7.5-3.357 7.5-7.5v-105c0-12.406 10.094-22.5 22.5-22.5h377c12.406 0 22.5 10.094 22.5 22.5v240c0 12.406-10.094 22.5-22.5 22.5h-377c-12.406 0-22.5-10.094-22.5-22.5v-105c0-4.143-3.357-7.5-7.5-7.5s-7.5 3.357-7.5 7.5v105c0 20.678 16.822 37.5 37.5 37.5h377c20.678 0 37.5-16.822 37.5-37.5v-240c0-20.678-16.822-37.5-37.5-37.5z" fill="#000000" data-original="#000000" style="" class=""/><path d="m219.287 349.447 128.302-73.957c6.941-4.03 11.253-11.499 11.253-19.49 0-8.006-4.318-15.473-11.271-19.484-.509-.296-1.002-.58-1.459-.845l-128.577-74.129c-3.42-1.948-7.291-2.979-11.193-2.979-12.406 0-22.5 10.094-22.5 22.5v150c0 12.406 10.094 22.5 22.5 22.5 4.663 0 9.129-1.421 12.945-4.116zm-20.445-18.384v-150c0-4.136 3.364-7.5 7.5-7.5 1.322 0 2.59.341 3.735.993 1.276.736 127.36 73.415 129.919 74.905.025.015.051.029.077.045 2.324 1.342 3.769 3.829 3.769 6.493 0 2.705-1.415 5.143-3.765 6.507l-128.608 74.134c-.242.14-.476.292-.701.458-.907.668-2.412 1.465-4.426 1.465-4.136 0-7.5-3.364-7.5-7.5z" fill="#000000" data-original="#000000" style="" class=""/></g></g></svg>
