<svg id="Capa_1" enable-background="new 0 0 512 512" height="512" viewBox="0 0 512 512" width="512" xmlns="http://www.w3.org/2000/svg"><g><g><path id="XMLID_54_" d="m502 123.778c0-62.838-75.073-113.778-246-113.778s-246 50.94-246 113.778c0 16.896 7.964 32.932 22.251 47.349 19.475 19.653 29.986 46.473 29.986 74.14v192.948c0 35.228 28.558 63.786 63.786 63.786h259.955c35.228 0 63.786-28.558 63.786-63.786v-192.948c0-27.667 10.512-54.487 29.986-74.14 14.286-14.417 22.25-30.452 22.25-47.349z" fill="#d1a184"/><g id="XMLID_56_"><path d="m127.651 462h256.698c14.036 0 25.414-11.378 25.414-25.414v-191.32c0-38.912 14.765-75.241 41.574-102.295 4.864-4.909 10.663-12.225 10.663-19.193 0-36.723-63.697-73.778-206-73.778s-206 37.055-206 73.778c0 6.969 5.799 14.284 10.664 19.193 26.809 27.054 41.573 63.383 41.573 102.295v191.32c0 14.036 11.378 25.414 25.414 25.414z" fill="#fff3da"/></g><path d="m442.673 228.761c-7.454-41.361-38.248-72.638-76.365-82.71-24.722-6.533-47.543-18.602-68.041-33.888-22.433-16.729-51.473-24.479-81.187-19.124-36.442 6.568-65.053 31.255-78.232 63.106-5.473 13.228-15.641 23.856-28.518 30.112-24.236 11.774-44.037 32.876-53.465 60.799-16.864 49.944 5.61 104.05 52.935 127.268 16.29 7.992 33.469 11.373 50.179 10.741 18.056-.683 35.44 7.068 46.944 21.001 23.314 28.236 60.777 43.402 99.381 36.445 43.898-7.912 76.425-42.116 84.306-83.461 2.491-13.069 9.255-25.003 19.128-33.921 25.971-23.457 39.599-59.393 32.935-96.368z" fill="#fff"/><g><circle cx="256.127" cy="256.127" fill="#ffcd69" r="73.887"/></g></g><g><path d="m447.662 34.428c-44.529-22.845-109.013-34.428-191.662-34.428s-147.133 11.583-191.662 34.428c-53.176 27.28-64.338 63.646-64.338 89.35 0 19.249 8.461 37.548 25.147 54.388 14.501 14.633 23.797 34.173 26.351 55.208-1.525 3.403-2.898 6.898-4.108 10.481-8.934 26.458-7.997 55.116 2.638 80.694.696 1.675 1.436 3.328 2.209 4.961v108.704c0 40.686 33.1 73.785 73.786 73.785h259.955c40.686 0 73.786-33.1 73.786-73.785v-192.947c0-25.271 9.874-49.728 27.089-67.101 16.686-16.84 25.147-35.139 25.147-54.388 0-25.704-11.162-62.07-64.338-89.35zm-332.962 160.824c15.165-7.368 27.023-19.898 33.389-35.284 12.412-29.997 38.866-51.338 70.765-57.087 26.09-4.703 52.171 1.44 73.435 17.299 22.954 17.117 46.998 29.074 71.464 35.539 35.461 9.372 62.577 38.738 69.079 74.815 5.848 32.452-5.291 65.04-29.796 87.173-11.471 10.36-19.372 24.378-22.249 39.47-3.548 18.613-12.511 35.591-25.919 49.095-13.707 13.805-31.113 22.933-50.337 26.396-33.649 6.066-68.096-6.567-89.896-32.97-12.854-15.567-32.325-24.675-52.5-24.675-.843 0-1.688.017-2.532.048-15.75.601-31.029-2.677-45.397-9.726-20.703-10.157-36.936-27.372-45.709-48.474-8.771-21.099-9.538-44.757-2.156-66.618 8.205-24.305 25.38-43.839 48.359-55.001zm-2.463 191.129c15.274 6.302 31.759 9.29 48.121 8.677 14.885-.562 29.406 5.932 38.854 17.375 17.161 20.784 40.797 34.518 66.434 39.567h-137.995c-8.5 0-15.414-6.915-15.414-15.414zm287.526-22.266v72.471c0 8.499-6.915 15.414-15.414 15.414h-74.511c22.582-4.428 43.031-15.33 59.222-31.637 15.456-15.567 26.019-34.96 30.703-56.248zm-13.785 127.885h-259.956c-29.657 0-53.786-24.128-53.786-53.785v-79.377c5.972 6.347 12.68 12.015 20 16.89v60.858c0 19.527 15.887 35.414 35.414 35.414h256.697c19.527 0 35.414-15.887 35.414-35.414v-107.17c7.992-7.8 14.691-16.561 20-26.001v134.8c.002 29.657-24.126 53.785-53.783 53.785zm86.668-327.912c-11.638 11.745-20.508 26.127-26.087 41.833-3.153-8.103-7.201-15.772-12.032-22.883 6.211-12.166 14.233-23.26 23.913-33.028 8.998-9.08 13.56-17.906 13.56-26.231 0-21.021-15.8-40.475-44.49-54.776-29.611-14.762-73.147-24.316-125.903-27.634-5.492-.352-10.261 3.841-10.608 9.353-.346 5.513 3.841 10.262 9.353 10.608 50.111 3.15 90.996 11.993 118.235 25.571 21.547 10.741 33.413 23.837 33.413 36.877 0 1.991-2.034 6.369-7.766 12.154-9.109 9.192-16.943 19.41-23.408 30.487-14.122-14.188-31.942-24.746-51.963-30.037-21.982-5.809-43.723-16.654-64.618-32.236-25.377-18.926-57.793-26.562-88.939-20.949-38.633 6.964-70.67 32.805-85.698 69.124-4.493 10.857-12.891 19.715-23.648 24.94-2.471 1.201-4.885 2.485-7.242 3.842-7.491-16.808-17.865-31.966-30.951-45.171-5.733-5.784-7.767-10.162-7.767-12.154 0-13.039 11.865-26.135 33.408-36.875 27.236-13.578 68.115-22.422 118.22-25.573 5.512-.347 9.699-5.097 9.353-10.608s-5.099-9.707-10.608-9.353c-52.749 3.318-96.28 12.874-125.887 27.635-28.688 14.302-44.486 33.754-44.486 54.774 0 8.327 4.562 17.152 13.561 26.232 12.289 12.401 21.825 26.783 28.421 42.814-5.699 4.807-10.894 10.15-15.528 15.963-5.49-16.847-14.737-32.224-27.101-44.7-12.841-12.959-19.353-26.521-19.353-40.309 0-28.867 18.489-53.611 53.467-71.556 41.09-21.079 104.209-32.222 182.533-32.222s141.443 11.143 182.533 32.223c34.978 17.944 53.467 42.688 53.467 71.555 0 13.788-6.512 27.35-19.354 40.31z"/><path d="m256.127 340.014c46.255 0 83.887-37.632 83.887-83.887s-37.631-83.887-83.887-83.887-83.887 37.632-83.887 83.887 37.632 83.887 83.887 83.887zm0-147.774c35.227 0 63.887 28.659 63.887 63.887s-28.66 63.887-63.887 63.887-63.887-28.659-63.887-63.887 28.66-63.887 63.887-63.887z"/><path d="m256.127 235.251c11.511 0 20.876 9.365 20.876 20.876 0 5.522 4.477 10 10 10s10-4.478 10-10c0-22.539-18.337-40.876-40.876-40.876-5.523 0-10 4.478-10 10s4.477 10 10 10z"/><circle cx="256" cy="50" r="10"/></g></g></svg>